<svg width="80" height="25" viewBox="0 0 80 25" fill="none" xmlns="http://www.w3.org/2000/svg">
<path fill-rule="evenodd" clip-rule="evenodd" d="M22.7413 17.5381L22.7413 17.5382C22.7824 17.6395 22.8235 17.7408 22.8645 17.8394C23.1865 18.7565 23.2855 19.6233 23.0888 20.4904C22.816 22.3241 21.6021 23.9092 19.8675 24.6035C19.2482 24.8763 18.5546 25 17.8608 25C17.6625 25 17.4145 24.9755 17.2162 24.9503C16.3987 24.8513 15.5566 24.579 14.7385 24.1082C13.7474 23.5382 12.7563 22.7208 11.6662 21.5315C10.5761 22.7208 9.6098 23.5382 8.59396 24.1082C7.77614 24.579 6.93381 24.8513 6.11599 24.9503C5.91748 24.9753 5.66995 25 5.47168 25C4.77812 25 4.10906 24.8763 3.46475 24.6035C1.75485 23.9092 0.516238 22.3488 0.243713 20.4904C0.119456 19.5981 0.218713 18.7307 0.540991 17.8141C0.664753 17.4921 0.788516 17.1948 0.912278 16.9221C1.0004 16.724 1.08857 16.5309 1.17455 16.3425C1.28202 16.107 1.38607 15.879 1.48233 15.6585L1.50733 15.6092C3.21698 11.8926 5.07515 8.12653 6.98307 4.41019L7.05757 4.26118C7.26039 3.8754 7.45851 3.48717 7.65188 3.09658C7.89941 2.65029 8.17218 2.1795 8.54396 1.7337C9.36129 0.792367 10.4761 0.24707 11.7152 0.24707C12.9291 0.24707 14.069 0.792367 14.8618 1.78346C15.2273 2.19481 15.4662 2.62657 15.6956 3.04112L15.7539 3.14633C15.9467 3.53717 16.1449 3.9254 16.3482 4.31093L16.4224 4.45994C18.3553 8.17628 20.1885 11.9421 21.8984 15.659L21.9232 15.6837C22.02 15.9054 22.1247 16.1351 22.2329 16.3724L22.2329 16.3725L22.233 16.3725C22.3182 16.5593 22.4055 16.751 22.493 16.9473C22.5757 17.1296 22.6585 17.3339 22.7413 17.5381ZM41.9925 6.46662C41.9925 7.3587 41.2737 8.07702 40.3816 8.07702C39.4895 8.07702 38.7712 7.3587 38.7712 6.46662C38.7712 5.57455 39.465 4.85623 40.3816 4.85623C41.2989 4.88098 41.9925 5.59955 41.9925 6.46662ZM35.3519 9.71266V10.1092C35.3519 10.1092 34.5841 9.11761 32.9487 9.11761C30.2482 9.11761 28.1417 11.1743 28.1417 14.0236C28.1417 16.8483 30.2234 18.9295 32.9487 18.9295C34.6088 18.9295 35.3519 17.9137 35.3519 17.9137V18.3347C35.3519 18.533 35.5009 18.6812 35.6989 18.6812H37.7056V9.36464H35.6989C35.5009 9.36539 35.3519 9.53915 35.3519 9.71266ZM33.3452 16.6998C34.237 16.6998 34.9806 16.229 35.3519 15.6837V12.3634C35.0053 11.8431 34.2125 11.3476 33.3452 11.3476C31.7596 11.3476 30.5452 12.3387 30.5452 14.0236C30.5452 15.7087 31.7596 16.6998 33.3452 16.6998ZM39.1925 9.36539H41.5709V18.682H39.1925V9.36539ZM72.3197 10.109C72.3197 10.109 73.088 9.11737 74.7234 9.11737C77.3992 9.11737 79.5051 11.1995 79.5051 14.0243C79.5051 16.8491 77.3992 18.9297 74.6982 18.9297C73.0633 18.9297 72.295 17.9139 72.295 17.9139V18.3349C72.295 18.5085 72.1467 18.682 71.9484 18.682H69.9412V4.88098H72.3197V10.109ZM74.3269 16.6748C73.4098 16.6748 72.6915 16.2045 72.3197 15.659V12.3387C72.6915 11.8431 73.4843 11.3228 74.3269 11.3228C75.9125 11.3228 77.1266 12.3139 77.1266 13.9988C77.1266 15.6837 75.9128 16.6748 74.3269 16.6748ZM68.7026 18.7067V13.1567C68.7026 11.5956 68.3801 10.7038 67.538 10.0099C66.8442 9.41539 65.9769 9.11761 64.936 9.11761C64.0195 9.11761 63.1029 9.39039 62.4091 10.1092V9.71266C62.4091 9.53915 62.2603 9.36563 62.062 9.36563H60.1796V18.6822H62.5576V12.1904C63.0291 11.6451 63.7727 11.2733 64.491 11.2733C65.8281 11.2733 66.3237 11.8931 66.3237 13.429V18.7067H68.7026ZM54.4056 9.11737C52.7707 9.11737 52.0024 10.109 52.0024 10.109V4.88098H49.6239V18.682H51.6306C51.8289 18.682 51.9776 18.5085 51.9776 18.3349V17.9139C51.9776 17.9139 52.7459 18.9297 54.3808 18.9297C57.0818 18.9297 59.1878 16.8491 59.1878 14.0243C59.2125 11.1993 57.1066 9.11737 54.4056 9.11737ZM52.0024 15.659C52.3742 16.2045 53.0925 16.6748 54.0091 16.6748C55.5952 16.6748 56.8091 15.6837 56.8091 13.9988C56.8091 12.3139 55.5952 11.3228 54.0091 11.3228C53.167 11.3228 52.3742 11.8431 52.0024 12.3387V15.659ZM47.5672 9.11737C48.2855 9.11737 48.6573 9.24162 48.6573 9.24162V11.4466C48.6573 11.4466 46.6751 10.7775 45.4365 12.1901V18.7065H43.0576V9.36539H45.0648C45.263 9.36539 45.4113 9.5389 45.4113 9.71242V10.109C45.8578 9.58841 46.8242 9.11737 47.5672 9.11737ZM11.6902 19.1278C10.3521 17.4429 9.4848 15.8572 9.18777 14.5196C9.06401 13.9495 9.03901 13.454 9.11352 13.008C9.16277 12.6114 9.31178 12.2644 9.51005 11.9671C9.98084 11.2986 10.7737 10.877 11.6905 10.877C12.6076 10.877 13.4251 11.2736 13.8712 11.9671C14.0695 12.2644 14.218 12.6117 14.268 13.008C14.342 13.4542 14.3172 13.9743 14.1935 14.5196C13.8952 15.8325 13.0279 17.4184 11.6902 19.1278ZM19.3214 23.1916C20.5353 22.6961 21.4026 21.5807 21.5759 20.2924C21.6751 19.6483 21.6009 19.0285 21.4031 18.3849C21.3515 18.2125 21.2758 18.0403 21.1929 17.8516C21.1565 17.7689 21.1188 17.683 21.0811 17.5926C20.9822 17.3946 20.8896 17.1846 20.7969 16.9745C20.7037 16.7633 20.6106 16.5521 20.511 16.353V16.3283C18.7727 12.5778 16.9636 8.86057 15.0848 5.17851L15.0103 5.0295C14.9133 4.84739 14.8162 4.65922 14.719 4.47087C14.618 4.27519 14.5169 4.07933 14.4157 3.88989C14.2175 3.4941 13.9947 3.12232 13.7219 2.7993C13.2016 2.20524 12.5081 1.88271 11.7398 1.88271C10.9714 1.88271 10.2779 2.20524 9.75758 2.7993C9.4848 3.12158 9.26203 3.49336 9.06376 3.88989C8.96763 4.07038 8.87144 4.2567 8.7752 4.44313C8.67318 4.64073 8.5711 4.83845 8.46896 5.0295L8.3947 5.17851C6.48678 8.84534 4.65337 12.6114 2.94396 16.3035L2.91896 16.3528C2.72045 16.7738 2.52267 17.1953 2.34916 17.5919C2.31116 17.6831 2.27312 17.7697 2.2365 17.8531C2.15384 18.0412 2.07842 18.2128 2.02713 18.3847C1.77911 19.0785 1.72985 19.6978 1.80411 20.3171C1.97738 21.6055 2.8447 22.7208 4.05857 23.2164C4.62837 23.4391 5.27292 23.5384 5.94173 23.4639C6.56104 23.3899 7.1801 23.1916 7.82441 22.8198C8.71649 22.3243 9.63332 21.556 10.6492 20.4161C9.03876 18.4092 8.02292 16.5508 7.65139 14.9159C7.45312 14.1723 7.42861 13.454 7.52762 12.8094C7.62663 12.1901 7.8499 11.6201 8.19668 11.1245C8.96475 10.0344 10.2534 9.36539 11.69 9.36539C13.1266 9.36539 14.4152 10.0092 15.1838 11.1245C15.5306 11.6201 15.7539 12.1901 15.8526 12.8094C15.9274 13.454 15.9024 14.1476 15.7289 14.9159C15.3571 16.5508 14.366 18.3847 12.7308 20.3914C13.7717 21.5315 14.6635 22.2991 15.5556 22.7951C16.1994 23.1664 16.8192 23.3646 17.4385 23.4391C18.0823 23.5137 18.7269 23.4391 19.3214 23.1916Z" fill="#353D52"/>
</svg>
