<?xml version="1.0" encoding="UTF-8" standalone="no"?>
<!DOCTYPE svg PUBLIC "-//W3C//DTD SVG 1.1//EN" "http://www.w3.org/Graphics/SVG/1.1/DTD/svg11.dtd">
<svg width="100%" height="100%" viewBox="0 0 275 79" version="1.1" xmlns="http://www.w3.org/2000/svg" xmlns:xlink="http://www.w3.org/1999/xlink" xml:space="preserve" xmlns:serif="http://www.serif.com/" style="fill-rule:evenodd;clip-rule:evenodd;stroke-linejoin:round;stroke-miterlimit:2;">
    <rect x="123.001" y="2.918" width="1.31" height="70.314" style="fill:rgb(0,129,0);"/>
    <g transform="matrix(1,0,0,1,-2.84756,1.78243)">
        <text x="158.52px" y="32.13px" style="font-family:'SFProDisplay-Regular', 'SF Pro Display';font-size:33.333px;fill:rgb(0,129,0);">Bio Etic</text>
        <text x="158.52px" y="65.463px" style="font-family:'SFProDisplay-Regular', 'SF Pro Display';font-size:33.333px;fill:rgb(0,129,0);">Goods</text>
    </g>
    <path d="M15.812,65.816C18.052,67.325 20.754,68.423 24.1,68.949C36.989,72.293 34.924,65.397 18.942,54.36C15.382,49.84 13.15,38.102 12.935,37.145C12.777,36.443 28.867,57.075 29.511,56.754C33.103,61.311 42.743,60.766 43.261,55.378C43.777,50.025 56.216,24.024 67.891,20.484C67.891,20.484 75.851,17.319 74.366,18.73C72.13,18.466 51.617,45.087 52.045,49.955C54.015,87.641 94.943,65.946 85.026,30.352C83.856,22.008 96.147,6.249 94.96,5.778C93.182,5.073 75.61,8.724 66.109,11.78C52.464,14.997 36.887,31.114 34.716,35.84C34.601,38.423 9.225,20.904 7.403,22.026C4.775,23.643 5.665,28.011 5.543,31.094C5.099,42.375 5.49,58.315 15.812,65.816Z" style="fill:rgb(0,128,1);"/>
</svg>
