<?xml version="1.0" encoding="UTF-8" standalone="no"?>
<!DOCTYPE svg PUBLIC "-//W3C//DTD SVG 1.1//EN" "http://www.w3.org/Graphics/SVG/1.1/DTD/svg11.dtd">
<svg width="100%" height="100%" viewBox="0 0 275 79" version="1.1" xmlns="http://www.w3.org/2000/svg" xmlns:xlink="http://www.w3.org/1999/xlink" xml:space="preserve" xmlns:serif="http://www.serif.com/" style="fill-rule:evenodd;clip-rule:evenodd;stroke-linejoin:round;stroke-miterlimit:2;">
    <rect x="123.001" y="2.918" width="1.31" height="70.314" style="fill:rgb(0,129,0);"/>
    <g transform="matrix(1,0,0,1,-2.84756,1.78243)">
        <text x="158.52px" y="32.13px" style="font-family:'SFProDisplay-Regular', 'SF Pro Display';font-size:33.333px;fill:rgb(0,129,0);">Bio Etic</text>
        <text x="158.52px" y="65.463px" style="font-family:'SFProDisplay-Regular', 'SF Pro Display';font-size:33.333px;fill:rgb(0,129,0);">Goods</text>
    </g>
    <path d="M15.812,65.816C18.052,67.325 20.754,68.423 24.1,68.949C27.125,69.437 35.283,66.145 34.358,64.862C28.81,57.16 25.114,61.632 18.942,54.36C15.382,49.84 12.63,38.078 12.935,37.145C13.239,36.213 20.77,48.765 20.77,48.765L29.511,56.754C31.7,58.275 35.232,60.182 37.583,60.146C39.925,60.11 41.602,58.693 43.614,56.537C44.795,53.983 45.566,51.178 46.108,48.234L49.751,39.573C53.7,32.23 59.021,25.154 67.891,20.484C67.891,20.484 75.851,17.319 74.366,18.73C72.823,20.195 52.93,48.363 52.045,49.955C49.482,54.566 50.469,61.955 51.112,63.68C51.645,65.109 54.602,67.188 57.618,67.738C63.942,68.89 71.069,67.296 80.412,58.116L82.926,53.68C84.487,49.207 85.126,44.41 85.155,39.399L85.026,30.352C83.856,22.008 88.259,15.435 92.71,8.878C92.71,8.878 96.231,5.907 94.96,5.778C93.182,5.598 86.347,6.814 82.041,7.797L71.703,9.505L64.115,11.75C54.472,14.264 45.506,19.747 37.746,30.52C36.739,32.344 36.63,35.327 35.806,35.837C35.361,36.113 24.482,31.275 21.468,30.475C18.824,29.384 17.058,27.941 14.693,26.413C14.693,26.413 8.945,19.951 7.403,22.026C5.562,24.502 5.665,28.011 5.543,31.094C5.099,42.375 5.49,58.315 15.812,65.816Z" style="fill:rgb(0,128,1);"/>
</svg>
