<svg width="127" height="26" viewBox="0 0 127 26" fill="none" xmlns="http://www.w3.org/2000/svg">
<path fill-rule="evenodd" clip-rule="evenodd" d="M2.62285 24.6929H7.7021V12.3983H11.0912L11.54 8.16211H7.7021L7.70849 6.04168C7.70849 4.93677 7.813 4.34454 9.39809 4.34454H11.5168V0.107178H8.12712C4.05581 0.107178 2.62343 2.16199 2.62343 5.61841V8.16269H0.0849609V12.3989H2.62285V24.6929ZM48.1562 11.7387C46.4311 11.7387 46.0375 12.6857 46.0375 13.8586V14.5176H50.2725V13.8586C50.2725 12.6857 49.8788 11.7387 48.1562 11.7387ZM64.6678 12.1661C63.632 12.1661 62.8853 12.5057 62.1282 12.8518V20.682C62.8534 20.7511 63.2691 20.7511 63.9571 20.7511C66.4433 20.7511 66.7841 19.6125 66.7841 18.0228V14.283C66.7841 13.109 66.3946 12.1661 64.6678 12.1661ZM17.5738 21.2986C16.6076 21.2986 16.1698 20.8167 16.1698 19.8889C16.1698 18.9558 16.6413 18.7561 17.7143 18.7561H19.9805V20.6135C19.9074 20.647 19.8357 20.6804 19.7648 20.7135L19.7644 20.7137C19.1012 21.0229 18.5099 21.2986 17.5738 21.2986ZM80.7295 12.1661C79.0015 12.1661 78.4029 13.109 78.4029 14.283V18.5674C78.4029 19.7443 79.0015 20.6901 80.7295 20.6901C82.4527 20.6901 83.056 19.7443 83.056 18.5674V14.283C83.0554 13.109 82.4522 12.1661 80.7295 12.1661ZM25.0609 24.7248H20.8276L20.6447 23.6542C18.7118 24.7248 16.9868 24.8984 15.8488 24.8984C12.7442 24.8984 11.0918 22.8245 11.0918 19.9562C11.0918 16.5724 13.02 15.3647 16.4694 15.3647H19.9805V14.6331C19.9805 12.9058 19.7825 12.3989 17.1261 12.3989H12.7831L13.2075 8.16269H17.9547C23.7829 8.16269 25.0609 10.0038 25.0609 14.6674V24.7248ZM34.7978 12.1585C36.0653 12.1585 36.8219 12.2578 39.4562 12.7095V8.57957C37.1488 8.05992 35.6456 7.92347 34.3752 7.92347C28.922 7.92347 26.7545 10.7964 26.7545 14.9426V17.9101C26.7545 22.0528 28.922 24.9205 34.3752 24.9205C35.6456 24.9205 37.1488 24.7846 39.4562 24.2673V20.135C36.8219 20.5885 36.0653 20.6895 34.7978 20.6895C32.5212 20.6895 31.8332 20.185 31.8332 18.2515V14.5942C31.8332 12.6607 32.5212 12.1585 34.7978 12.1585ZM55.3512 17.9101H46.0369V18.2515C46.0369 20.185 46.7255 20.6895 49.0015 20.6895C51.0476 20.6895 52.2965 20.5885 54.9262 20.135V24.2673C52.39 24.7846 51.0685 24.9205 48.5806 24.9205C43.1268 24.9205 40.9582 22.0528 40.9582 17.9101V14.517C40.9582 10.8922 42.5671 7.92347 48.1556 7.92347C53.744 7.92347 55.3512 10.8579 55.3512 14.517V17.9101ZM63.7853 24.913C70.7178 24.913 71.8622 21.9925 71.8622 17.9885H71.8617V13.8591C71.8617 10.2007 71.0157 7.92405 65.9376 7.92405C64.6451 7.92405 63.225 8.13133 62.1276 8.53893V0.532771L57.0501 1.37989V24.2679C59.8132 24.6929 61.2816 24.913 63.7853 24.913ZM88.1387 18.0756C88.1387 21.5297 86.7127 24.8799 80.7463 24.8799C74.7769 24.8799 73.3242 21.5297 73.3242 18.0756V14.7405C73.3242 11.2847 74.7769 7.93392 80.7463 7.93392C86.7127 7.93392 88.1387 11.2847 88.1387 14.7405V18.0756ZM97.0112 24.8799C102.976 24.8799 104.404 21.5297 104.404 18.0756V14.7405C104.404 11.2847 102.976 7.93392 97.0112 7.93392C91.0418 7.93392 89.5891 11.2847 89.5891 14.7405V18.0756C89.5891 21.5297 91.0418 24.8799 97.0112 24.8799ZM121.096 24.6929H115.593L110.938 16.9225V24.6929H105.859V1.37931L110.938 0.532191V15.5406L115.593 8.16269H121.096L116.015 16.2141L121.096 24.6929ZM94.6701 14.283C94.6701 13.109 95.2687 12.1661 96.9938 12.1661C98.7165 12.1661 99.3261 13.109 99.3261 14.283V18.5674C99.3261 19.7443 98.7165 20.6901 96.9938 20.6901C95.2687 20.6901 94.6701 19.7443 94.6701 18.5674V14.283ZM123.995 21.7933C124.851 21.7933 125.532 22.4906 125.532 23.3616C125.532 24.2458 124.85 24.9356 123.989 24.9356C123.132 24.9356 122.437 24.2458 122.437 23.3616C122.437 22.4906 123.132 21.7933 123.989 21.7933H123.995ZM122.736 23.3616C122.736 22.63 123.3 22.0372 123.989 22.0372H123.995C124.691 22.0372 125.247 22.6306 125.247 23.3685C125.247 24.1065 124.691 24.6987 123.995 24.6917C123.3 24.6917 122.736 24.1065 122.736 23.3616ZM123.697 24.2743H123.418V22.5243L123.432 22.5224C123.573 22.5027 123.711 22.4837 123.913 22.4837C124.178 22.4837 124.351 22.5394 124.457 22.6155C124.56 22.6927 124.615 22.8105 124.615 22.9772C124.615 23.2083 124.463 23.347 124.275 23.4034V23.4167C124.428 23.4452 124.532 23.5833 124.567 23.8406C124.608 24.1129 124.65 24.2168 124.678 24.2737H124.386C124.344 24.2168 124.302 24.0571 124.267 23.8266C124.227 23.6042 124.114 23.5206 123.891 23.5206H123.698V24.2743H123.697ZM123.899 23.3058H123.697V22.7124C123.745 22.706 123.808 22.6991 123.899 22.6991C124.212 22.6991 124.322 22.8518 124.322 23.0051C124.322 23.2216 124.128 23.3058 123.899 23.3058Z" fill="#353D52"/>
</svg>
