<svg width="77" height="25" viewBox="0 0 77 25" fill="none" xmlns="http://www.w3.org/2000/svg">
<path d="M9.42722 0H10.1075C12.4692 0.0513419 14.7924 1.00117 16.4611 2.68261C15.845 3.31155 15.216 3.91482 14.6128 4.54376C13.6758 3.69661 12.5462 3.04201 11.314 2.81097C9.4914 2.4259 7.52757 2.77246 6.00015 3.81213C4.33154 4.90315 3.20202 6.75146 2.95815 8.72812C2.6886 10.6791 3.24053 12.7328 4.51124 14.2474C5.73061 15.7234 7.59175 16.6476 9.51707 16.7118C11.314 16.8145 13.188 16.2625 14.4972 15.0047C15.5241 14.119 15.999 12.7713 16.153 11.4621C14.0223 11.4621 11.8916 11.4749 9.76094 11.4621V8.81797H18.7329C19.195 11.6546 18.5276 14.8506 16.3712 16.8786C14.9336 18.3162 12.9441 19.1634 10.9161 19.3302C8.95231 19.5227 6.92431 19.1505 5.17868 18.2007C3.0865 17.084 1.41789 15.1972 0.59642 12.9767C-0.173708 10.9358 -0.186543 8.62543 0.532243 6.57176C1.18685 4.69778 2.44473 3.04201 4.062 1.88681C5.61509 0.744457 7.5019 0.115519 9.42722 0Z" fill="#353D52"/>
<path d="M60.8975 0.66748H63.6443V18.9965C62.7329 18.9965 61.8088 19.0094 60.8975 18.9837C60.9103 12.8868 60.8975 6.77716 60.8975 0.66748Z" fill="#353D52"/>
<path fill-rule="evenodd" clip-rule="evenodd" d="M29.7713 8.0736C28.3722 7.05959 26.5368 6.7002 24.8425 7.02109C22.7118 7.39332 20.825 8.97208 20.1575 11.0386C19.4901 12.9639 19.7853 15.223 21.0047 16.8659C22.0829 18.3548 23.8541 19.2661 25.6768 19.3688C27.6663 19.4972 29.7071 18.65 30.9522 17.0713C32.1074 15.6594 32.5438 13.7084 32.1972 11.9242C31.9277 10.384 31.042 8.97208 29.7713 8.0736ZM23.4306 10.6022C23.8927 10.0374 24.5344 9.63952 25.2275 9.45983C26.3314 9.17745 27.5508 9.49833 28.3851 10.2685C29.6814 11.4622 29.9253 13.5672 29.0782 15.0946C28.5904 15.9931 27.7048 16.6734 26.6908 16.8531C25.5998 17.0713 24.4189 16.699 23.6359 15.9032C22.2625 14.517 22.1855 12.0911 23.4306 10.6022Z" fill="#353D52"/>
<path fill-rule="evenodd" clip-rule="evenodd" d="M43.9545 8.54848C42.5041 7.18792 40.3862 6.64883 38.4481 7.02105C36.3559 7.38045 34.5076 8.90787 33.8016 10.9102C33.0957 12.874 33.3652 15.1844 34.6103 16.8659C35.7141 18.3933 37.5496 19.3174 39.4107 19.3688C41.3617 19.4586 43.3384 18.6115 44.5577 17.0712C46.5729 14.6325 46.3162 10.6663 43.9545 8.54848ZM37.0362 10.5893C37.4982 10.0374 38.14 9.63949 38.8331 9.45979C39.9241 9.17741 41.1435 9.48546 41.9778 10.2556C43.287 11.4493 43.5309 13.5543 42.6966 15.0946C42.2089 15.993 41.3104 16.6605 40.3092 16.853C39.1797 17.0841 37.9603 16.6733 37.1773 15.839C35.8553 14.44 35.804 12.0526 37.0362 10.5893Z" fill="#353D52"/>
<path fill-rule="evenodd" clip-rule="evenodd" d="M55.0187 7.38036C53.4271 6.58456 51.4633 6.84127 49.9872 7.76542C48.2031 8.85644 47.0222 10.8716 46.9837 12.9638C46.9067 14.8121 47.7282 16.6732 49.1144 17.8798C50.4878 19.0863 52.4516 19.7024 54.2358 19.2018C55.0572 19.0093 55.7375 18.4959 56.328 17.9183C56.3665 19.112 56.3665 20.4469 55.5707 21.4224C54.8262 22.3722 53.5042 22.6546 52.3618 22.4492C51.2194 22.2438 50.3081 21.3453 49.8589 20.2928C49.5573 20.4242 49.2539 20.5481 48.9515 20.6717C48.4558 20.8742 47.9626 21.0757 47.4843 21.3068C48.2544 23.1423 49.9872 24.5927 51.9767 24.8879C53.8379 25.1703 55.9044 24.7467 57.2521 23.3734C58.4843 22.1283 58.9207 20.3185 58.9336 18.6114V7.29051C58.4972 7.28409 58.064 7.28409 57.6324 7.28409C57.2008 7.28409 56.7708 7.28409 56.3408 7.27768C56.3344 7.45737 56.3344 7.63707 56.3344 7.81516C56.3344 7.99325 56.3344 8.16974 56.328 8.34302C55.9301 7.97079 55.5193 7.59856 55.0187 7.38036ZM50.629 10.5764C51.1296 9.97312 51.8612 9.53672 52.6442 9.40836C53.7095 9.21583 54.839 9.61373 55.545 10.4224C56.6874 11.7316 56.8285 13.7724 55.9814 15.2742C55.4808 16.1598 54.5438 16.8016 53.5298 16.9043C52.4516 17.0198 51.335 16.5577 50.6418 15.7234C49.4225 14.3115 49.4225 12.014 50.629 10.5764Z" fill="#353D52"/>
<path fill-rule="evenodd" clip-rule="evenodd" d="M72.8344 7.25196C70.8578 6.49467 68.4832 6.98241 66.9429 8.41999C64.5427 10.6405 64.3373 14.7735 66.468 17.238C67.7644 18.8039 69.8951 19.574 71.8974 19.3301C73.7072 19.1633 75.3887 18.1108 76.3898 16.609C76.0369 16.3716 75.6839 16.1373 75.3309 15.9031C74.9779 15.6688 74.625 15.4346 74.272 15.1971C73.9896 15.5565 73.6944 15.9287 73.3222 16.2111C72.3852 16.9556 71.0503 17.0968 69.9336 16.6989C69.1378 16.4293 68.5474 15.7619 68.1623 15.0303C69.555 14.4526 70.9445 13.8782 72.334 13.3038C73.7234 12.7295 75.1128 12.1551 76.5054 11.5775C75.9021 9.74204 74.7084 7.95791 72.8344 7.25196ZM67.7131 12.9509C67.7002 12.1936 67.8799 11.4235 68.3163 10.7945C68.9966 9.79338 70.2673 9.13877 71.4867 9.35698C72.244 9.4725 72.9885 9.9089 73.2965 10.6277C71.4354 11.4106 69.5743 12.1807 67.7132 12.9508L67.7131 12.9509Z" fill="#353D52"/>
</svg>
