<svg width="89" height="25" viewBox="0 0 89 25" fill="none" xmlns="http://www.w3.org/2000/svg">
<path fill-rule="evenodd" clip-rule="evenodd" d="M2.63023 1.46972C3.24746 0.90002 4.29375 0.0441895 5.10081 0.0441895C5.72741 0.0441895 6.21115 0.258324 6.63332 0.526433C6.92202 0.713801 7.00726 0.845161 7.00726 1.14905V12.3759C7.00726 15.2558 6.82564 16.2542 6.08518 17.5331C5.8464 17.9091 5.00355 18.9399 4.15779 18.9399C3.97917 18.9399 3.88562 18.8839 3.88562 18.6678C3.88562 18.5071 3.94995 18.3104 4.03657 18.0454C4.21508 17.4995 4.48827 16.6639 4.48827 15.2577L4.579 1.89719C4.579 1.65391 4.55506 1.5752 4.45841 1.5752C4.36106 1.5752 4.03571 1.90991 3.89172 2.06486C3.1108 2.92104 2.16937 4.79207 2.16937 6.83332C2.16937 7.81239 2.32917 8.53827 2.8267 9.29887L2.83598 9.31144C2.95307 9.46995 3.06778 9.62524 3.06778 9.81089C3.06778 10.054 2.91504 10.1464 2.73589 10.1464C2.19251 10.1464 0.0441895 9.19286 0.0441895 6.6668C0.0441895 4.88907 1.27325 2.67422 2.63023 1.46972ZM28.6964 0.932882C28.7152 0.289419 28.8853 0.0814686 29.2831 0.0814686C29.7313 0.0815569 30.4391 0.299843 31.0162 0.52555C31.2076 0.611151 31.3134 0.725462 31.3045 0.900815L31.1777 3.6782L34.159 3.85718C34.5449 3.87891 34.6051 3.9888 34.6051 4.28968C34.6051 4.62316 34.5387 4.80877 34.4013 5.08748L34.3979 5.0937C34.3449 5.19016 34.2627 5.33962 34.123 5.34092L31.1317 5.38942C31.1317 5.38942 30.9241 10.5707 30.9218 12.0927C30.9218 14.3256 31.4286 15.1995 31.9047 15.1995C32.7617 15.1995 33.9838 13.0336 33.9838 11.6142C33.9838 7.89604 35.6084 5.55594 37.7356 5.55594C38.7952 5.55594 39.3962 6.00453 39.9961 6.81619C39.8857 6.1888 40.073 5.92758 40.6188 5.92758C41.0536 5.92758 41.3928 5.99507 41.8206 6.16504C42.1198 6.29737 42.3265 6.42873 42.3265 6.74154L42.1947 11.6927C42.1947 14.7392 42.5304 15.468 43.2498 15.468C44.1516 15.468 44.5509 14.0165 44.5509 13.6075C44.0846 10.2536 45.0354 5.53103 48.1324 5.53103C49.2689 5.53103 50.0056 6.23924 50.3421 6.83589C50.3028 6.44269 50.2541 5.91751 50.9895 5.91751C51.4969 5.91751 51.8995 6.04074 52.1465 6.14746C52.6137 6.32882 52.6772 6.47696 52.6772 6.71548L52.5717 14.0526C53.8245 12.2407 54.6747 10.6187 55.1975 8.43783C54.7947 8.1752 54.4904 7.68633 54.4904 7.15797C54.4904 5.98032 55.2002 5.29004 56.1669 5.29004C56.958 5.29004 57.2766 5.71566 57.2766 6.39481C57.283 6.67979 57.1971 7.04225 57.1971 7.04225C57.5049 6.99755 57.9311 6.91584 58.356 6.83438L58.356 6.83437L58.3561 6.83436L58.3561 6.83435C58.9817 6.7144 59.6046 6.59498 59.8429 6.59498C60.6417 6.59498 61.093 7.03076 61.093 7.71954C61.093 7.93045 60.9995 8.34333 60.879 8.87508L60.879 8.87514C60.661 9.83697 60.3549 11.1877 60.3549 12.4357C60.3549 14.368 60.8574 15.4829 61.646 15.4829C62.2711 15.4829 62.7236 14.7775 62.9161 13.9121C62.9161 13.9121 62.6642 12.8758 62.685 11.8331C62.685 8.11477 64.2884 5.55603 66.4157 5.55603C67.4752 5.55603 68.0749 6.00461 68.6748 6.81627C68.5644 6.1888 68.7517 5.92758 69.2975 5.92758C69.7323 5.92758 70.0726 5.99507 70.5005 6.16504C70.7997 6.29746 71.005 6.42882 71.005 6.74154L70.8744 11.6927C70.8744 14.7392 71.2101 15.468 71.9294 15.468C72.8059 15.468 73.4236 13.5394 73.5761 12.7315L73.6184 6.13129C73.6184 5.93633 73.7427 5.75603 73.9689 5.75603C74.2796 5.75603 74.6447 5.83827 75.4328 6.01937C75.7506 6.08324 75.8616 6.32051 75.8616 6.50152L75.8528 10.3725C75.9763 10.0106 76.0909 9.66475 76.2003 9.33454L76.2008 9.33317L76.2017 9.33046L76.2034 9.32519L76.2036 9.32462C76.6041 8.11584 76.935 7.11745 77.3713 6.31124L77.3975 6.26365C77.5589 5.96896 77.6777 5.75214 78.1443 5.75214C78.5403 5.75214 78.8646 5.8517 79.2566 6.01433C80.0634 6.36663 80.1564 6.91027 80.1564 7.29057C80.1548 8.54852 80.2291 10.4131 80.374 11.9606C80.379 12.0342 80.4509 12.022 80.4609 11.9643C80.7396 9.77599 81.779 7.08438 82.09 6.39816C82.2557 6.0161 82.4781 5.75585 82.9377 5.75585C83.4332 5.75585 84.2421 6.10241 84.5619 6.2865C85.0383 6.55894 85.1672 6.92847 85.1672 7.23721L85.0478 10.9691C85.0478 12.419 85.0876 14.1561 85.5833 14.9123C85.696 15.1013 85.8932 15.407 86.2817 15.407C86.6125 15.407 86.8914 15.1193 87.0784 14.6252C87.2625 14.1379 87.365 13.7114 87.4816 13.2263L87.5035 13.1352C87.5553 12.8937 87.6856 12.7338 87.9025 12.7338C88.2952 12.7338 88.2952 13.1209 88.2952 13.3626V13.3677C88.2952 13.9909 88.015 15.0912 87.716 15.6628C87.349 16.3984 86.6063 16.8559 85.7873 16.8559C85.4267 16.8569 85.0718 16.7649 84.7571 16.5888C83.1564 15.6155 82.9254 13.5909 82.9254 10.3863L82.9725 8.43518C82.9748 8.36636 82.9089 8.37043 82.8856 8.42272C82.0399 10.1854 81.1954 12.807 81.1954 15.5149C81.2012 15.6672 81.1535 15.7492 81.0588 15.8231C80.9653 15.9023 80.6 16.0293 80.3021 16.0293C79.6666 16.0293 79.242 15.7066 78.9674 15.2639C78.4214 14.3531 78.2748 10.8839 78.1846 8.75267V8.75258L78.1795 8.63147C78.1735 8.50753 78.0356 8.48067 77.9793 8.58297C77.3543 9.57299 76.9013 10.9959 76.6011 12.2528C76.3183 13.5152 76.2892 15.0876 76.2892 16.0827C76.2892 16.6861 76.0887 16.8756 75.1657 16.8756C74.8119 16.8756 74.4179 16.7907 73.969 16.6208C73.8324 16.571 73.6797 16.4501 73.667 16.2591C73.6625 16.1084 73.6575 15.9535 73.6525 15.7979L73.6525 15.797L73.6525 15.7958C73.6452 15.5711 73.6379 15.3449 73.6322 15.1271C73.1506 16.2751 72.5381 16.8844 71.4822 16.8844C70.0687 16.8844 69.19 15.7316 69.0825 14.6849C68.3733 16.0663 67.2119 16.8895 65.8538 16.8895C64.7623 16.8895 63.9105 16.3643 63.3324 15.2367C63.0872 15.8777 62.3142 16.8945 61.083 16.8945C60.4534 16.8945 59.8552 16.6845 59.2537 16.0619C58.5619 15.3187 58.0807 14.4095 58.0807 12.32C58.0807 11.0552 58.3124 9.78527 58.5778 8.66389C58.6182 8.49339 58.6328 8.3782 58.3403 8.3979L56.8304 8.43765C56.1374 10.576 54.5806 13.5982 52.5915 15.7846L52.6574 18.5508C52.6574 20.3904 52.3765 22.2723 51.7116 23.2708C51.1832 24.0424 50.2187 24.9634 48.7651 24.9634C47.3667 24.9634 45.7777 23.9956 45.7777 22.3126C45.7777 20.9892 46.6892 19.794 47.5462 18.9621L50.4975 16.2405L50.4627 15.1468C50.1466 15.8989 48.8236 16.9339 47.7064 16.9339C45.7172 16.9339 45.0295 15.0846 45.0295 15.0846C44.4986 16.2043 43.6898 16.884 42.8026 16.884C41.3892 16.884 40.5104 15.7313 40.4028 14.6846C39.6937 16.0659 38.5323 16.8892 37.1743 16.8892C36.0825 16.8892 35.2036 16.3714 34.6254 15.2437C34.2053 14.3802 34.1507 13.9588 34.1507 13.9588C33.5976 15.5824 32.3817 16.9115 31.3297 16.9115C29.7258 16.9115 28.6975 15.4039 28.5211 12.823C27.5999 14.9975 26.0649 16.9612 23.2036 16.9612C21.2652 16.9612 20.1849 16.2609 20.1849 15.7658C20.1849 15.2415 20.7989 14.318 21.2772 14.318C21.5372 14.318 21.7908 14.5011 22.0693 14.7021C22.4081 14.9467 22.7836 15.2178 23.252 15.2178C23.9347 15.2178 24.383 14.5227 24.383 13.8123C24.383 12.6693 23.3906 11.7297 21.9684 10.5179L19.7736 14.1889C19.0894 15.2958 17.8361 16.9354 16.5599 16.9354C15.2596 16.9354 14.8575 15.5718 14.8575 12.9586C14.8575 11.4892 15.0838 7.89693 15.0838 7.89693C15.1073 7.6767 14.9919 7.62113 14.8427 7.77643C13.4117 9.37661 12.5817 11.4761 11.8813 14.1305C11.6418 15.0298 11.4648 15.9265 11.4463 16.2967C11.433 16.8563 11.2173 16.9354 10.5441 16.9354C9.32811 16.9354 9.07149 16.5937 9.07149 14.5445L9.07758 12.2716L9.13094 6.37855C9.13094 5.96177 9.17917 5.79074 9.57582 5.79074C10.0505 5.79074 10.5855 5.96848 10.949 6.12263C11.2293 6.2418 11.3177 6.37776 11.302 6.72793L11.251 11.6392C11.7127 10.2121 12.04 9.22855 12.6453 8.06142C13.2302 6.93527 14.0829 5.78359 15.3345 5.78359C15.8416 5.78359 16.3354 6.10494 16.7519 6.37596L16.7521 6.37613L16.753 6.37672L16.7534 6.37696C16.7988 6.40646 16.8432 6.43536 16.8866 6.46318C17.3677 6.79834 17.4285 7.14021 17.4285 7.5108C17.4101 8.04843 17.3857 8.59354 17.3613 9.13866L17.3612 9.13887V9.13892V9.13897V9.13903V9.13909C17.3122 10.2331 17.2632 11.3272 17.2632 12.3612C17.2632 14.2258 17.4058 14.7112 17.7142 14.7112C18.1326 14.7112 18.8398 13.6126 19.2578 12.8955C19.8112 11.959 20.5566 10.644 21.0833 9.64454C20.7018 9.2562 20.4508 8.74843 20.4508 8.1843C20.4508 6.63668 21.7721 5.59322 22.9114 5.59322C23.7187 5.59322 24.1517 5.88253 24.1517 6.57122C24.1517 7.45947 23.3749 8.51142 22.9165 9.0418L25.1036 10.6872C25.9998 11.357 26.6719 12.3035 26.6719 13.3479C26.6778 13.7169 26.5739 14.0686 26.5739 14.0686C27.7827 12.9037 28.464 11.5032 28.464 10.4236L28.4714 5.33341L26.047 5.2638C25.8877 5.2638 25.7089 5.22175 25.7089 4.82758C25.7089 4.34348 25.8131 4.05276 26.011 3.68173C26.0728 3.55753 26.1367 3.51283 26.278 3.51645L28.6081 3.59719L28.6964 0.932882ZM38.3362 7.35885C39.1338 7.35885 39.943 8.08624 39.943 10.6669C39.943 13.9162 38.7593 15.4279 37.849 15.4279C36.9957 15.4279 36.3479 14.2234 36.3479 11.8575C36.3479 9.4661 36.9805 7.35885 38.3362 7.35885ZM68.6649 10.6669C68.6649 8.08624 67.8556 7.35885 67.0581 7.35885C65.7023 7.35885 65.0697 9.4661 65.0696 11.8575C65.0696 14.2234 65.7175 15.4279 66.5709 15.4279C67.4811 15.4279 68.6649 13.9162 68.6649 10.6669ZM48.841 7.37378C49.8818 7.37378 50.3422 8.44658 50.3422 10.5264C50.3422 13.6622 49.4101 15.4476 48.278 15.4476C47.5553 15.4476 46.7243 14.261 46.7681 11.927C46.7681 10.4346 47.2547 7.37378 48.841 7.37378ZM50.6031 19.0989V17.8637L49.4288 19.1038C48.9683 19.6021 47.4864 21.2145 47.4864 22.6319C47.4864 23.6459 48.3009 23.897 48.6334 23.897C49.511 23.897 50.6031 23.1975 50.6031 19.0989Z" fill="#353D52"/>
</svg>
