<svg width="107" height="25" viewBox="0 0 107 25" fill="none" xmlns="http://www.w3.org/2000/svg">
<path d="M25 12.5C25 19.4062 19.4062 25 12.5 25C5.59375 25 0 19.4062 0 12.5C0 5.59375 5.59375 0 12.5 0C19.4062 0 25 5.59375 25 12.5Z" fill="#353D52"/>
<path fill-rule="evenodd" clip-rule="evenodd" d="M8.125 6.25H14.1667C16.5833 6.25 18.5417 8.20833 18.5417 10.625C18.5417 13.0417 16.5833 15 14.1667 15H10.625V18.75H8.125V6.25ZM10.625 12.5H14.1667C15.1979 12.5 16.0417 11.6562 16.0417 10.625C16.0417 9.59375 15.1979 8.75 14.1667 8.75H10.625V12.5Z" fill="white"/>
<path fill-rule="evenodd" clip-rule="evenodd" d="M33.3333 8.33325V16.6666H35.0833V13.5937H37.1666C38.9374 13.5937 39.9166 12.3958 39.9166 10.9687C39.9166 9.53117 38.9478 8.33325 37.1666 8.33325H33.3333ZM36.9166 9.8645C37.6041 9.8645 38.1353 10.2812 38.1353 10.9687C38.1353 11.6458 37.6041 12.0624 36.9166 12.0624H35.0728V9.8645H36.9166Z" fill="#353D52"/>
<path d="M40.9688 16.6667V10.5938H42.5312V11.3959C42.9583 10.8855 43.6875 10.448 44.4271 10.448V11.9688C44.3125 11.948 44.1771 11.9376 44 11.9376C43.4792 11.9376 42.7917 12.2292 42.5417 12.6147V16.6772H40.9688L40.9688 16.6667Z" fill="#353D52"/>
<path fill-rule="evenodd" clip-rule="evenodd" d="M48.1355 10.448C46.1876 10.448 45.0105 11.8751 45.0105 13.5522C45.0105 15.2292 46.1876 16.6667 48.1355 16.6667C50.1042 16.6667 51.2813 15.2292 51.2813 13.5522C51.2813 11.8751 50.1042 10.448 48.1355 10.448ZM48.1459 11.8334C49.1251 11.8334 49.6667 12.6355 49.6667 13.5522C49.6667 14.4792 49.1251 15.2813 48.1459 15.2813C47.1772 15.2813 46.6355 14.4897 46.6355 13.5522C46.6355 12.6355 47.1772 11.8334 48.1459 11.8334Z" fill="#353D52"/>
<path fill-rule="evenodd" clip-rule="evenodd" d="M56.5313 15.7603V16.6666H58.1042V8.33325H56.5313V11.3541C56.0626 10.7395 55.3959 10.4478 54.698 10.4478C53.1876 10.4478 52.073 11.6249 52.073 13.552C52.073 15.5416 53.2084 16.6666 54.698 16.6666C55.4272 16.6666 56.0626 16.3541 56.5313 15.7603ZM56.5313 12.5103V14.6041C56.2709 14.9999 55.7084 15.2812 55.198 15.2812C54.3022 15.2812 53.6876 14.5833 53.6876 13.552C53.6876 12.5312 54.3022 11.8333 55.198 11.8333C55.7084 11.8333 56.2709 12.1145 56.5313 12.5103Z" fill="#353D52"/>
<path d="M63.6458 16.6667V15.7708C63.2395 16.2083 62.5312 16.6667 61.5624 16.6667C60.2603 16.6667 59.6458 15.9583 59.6458 14.8021V10.5938H61.2083V14.1875C61.2083 15.0104 61.6353 15.2812 62.302 15.2812C62.9062 15.2812 63.3853 14.9479 63.6562 14.6042V10.5938H65.2187V16.6667H63.6458Z" fill="#353D52"/>
<path d="M66.375 13.5522C66.375 11.7397 67.6979 10.448 69.5208 10.448C70.7396 10.448 71.4688 10.9792 71.8646 11.5209L70.8438 12.4792C70.5625 12.0626 70.1354 11.8438 69.5938 11.8438C68.6458 11.8438 67.9896 12.5313 67.9896 13.5626C67.9896 14.5938 68.6562 15.2917 69.5938 15.2917C70.1354 15.2917 70.5625 15.0417 70.8438 14.6459L71.8646 15.6042C71.4688 16.1459 70.7396 16.6876 69.5208 16.6876C67.6979 16.6667 66.375 15.3751 66.375 13.5522Z" fill="#353D52"/>
<path d="M73.2084 15.0312V11.9479H72.2292V10.5833H73.2084V8.96875H74.7709V10.5938H75.9688V11.9583H74.7709V14.625C74.7709 15.0104 74.9688 15.2917 75.3126 15.2917C75.5417 15.2917 75.7709 15.2083 75.8542 15.1042L76.1876 16.2917C75.9584 16.5 75.5417 16.6771 74.8855 16.6771C73.7813 16.6667 73.2084 16.1042 73.2084 15.0312Z" fill="#353D52"/>
<path d="M85.9479 16.6666V13.0728H82.0833V16.6666H80.3438V8.33325H82.0833V11.552H85.9479V8.33325H87.7083V16.6666H85.9479Z" fill="#353D52"/>
<path d="M93.2812 16.6667V15.7708C92.875 16.2083 92.1667 16.6667 91.1979 16.6667C89.8958 16.6667 89.2812 15.9583 89.2812 14.8021V10.5938H90.8438V14.1875C90.8438 15.0104 91.2708 15.2812 91.9375 15.2812C92.5417 15.2812 93.0208 14.9479 93.2917 14.6042V10.5938H94.8542V16.6667H93.2812Z" fill="#353D52"/>
<path d="M100.385 16.6667V12.9376C100.385 12.1147 99.9583 11.8334 99.2917 11.8334C98.6771 11.8334 98.2083 12.1772 97.9375 12.5209V16.6667H96.375V10.5938H97.9375V11.3542C98.3229 10.9167 99.0521 10.448 100.01 10.448C101.323 10.448 101.948 11.1876 101.948 12.3334V16.6667H100.385Z" fill="#353D52"/>
<path d="M103.823 15.0312V11.9479H102.844V10.5833H103.823V8.96875H105.385V10.5938H106.583V11.9583H105.385V14.625C105.385 15.0104 105.583 15.2917 105.927 15.2917C106.156 15.2917 106.385 15.2083 106.469 15.1042L106.802 16.2917C106.573 16.5 106.156 16.6771 105.5 16.6771C104.396 16.6667 103.823 16.1042 103.823 15.0312Z" fill="#353D52"/>
</svg>
