<svg width="84" height="25" viewBox="0 0 84 25" fill="none" xmlns="http://www.w3.org/2000/svg">
<path fill-rule="evenodd" clip-rule="evenodd" d="M12.4994 0.0412598C5.61706 0.0412598 0.0375977 5.62057 0.0375977 12.5029C0.0375977 19.3855 5.61706 24.9643 12.4994 24.9643C19.3824 24.9643 24.9613 19.3855 24.9613 12.5029C24.9613 5.62102 19.3824 0.041855 12.4992 0.041855L12.4994 0.0412598ZM18.2142 18.0145C18.1068 18.1905 17.9338 18.3165 17.7334 18.3648C17.533 18.4131 17.3216 18.3797 17.1458 18.2719C14.2199 16.4847 10.5366 16.08 6.19876 17.071C5.78051 17.1661 5.36429 16.9044 5.26885 16.4862C5.22274 16.2854 5.25842 16.0745 5.36803 15.9C5.47763 15.7255 5.65214 15.6018 5.85307 15.5561C10.6001 14.4716 14.672 14.9386 17.9568 16.946C18.3229 17.1707 18.4389 17.6484 18.2142 18.0145ZM18.4032 14.9416C18.8601 15.2228 19.4583 15.0785 19.7395 14.6213V14.6215C20.0208 14.1652 19.8764 13.567 19.4196 13.2858C15.5729 10.9219 9.94653 10.2567 5.42078 11.6299C4.90773 11.7862 4.61793 12.3282 4.77287 12.8417C4.92882 13.3547 5.47153 13.6442 5.98537 13.489C9.94742 12.2863 15.0535 12.8826 18.4032 14.9416ZM19.8705 11.088C15.8541 8.70242 9.22763 8.48308 5.39295 9.64691C4.77718 9.83367 4.12599 9.48605 3.93938 8.87028C3.75253 8.25423 4.10034 7.60333 4.71632 7.41626C9.11825 6.07995 16.436 6.33813 21.0601 9.08322C21.3262 9.24068 21.5188 9.49757 21.5953 9.79722C21.6718 10.0969 21.6259 10.4146 21.4678 10.6804C21.1404 11.2343 20.4232 11.4169 19.8711 11.088H19.8705ZM31.4077 9.91522C31.4077 10.6719 31.7901 11.032 33.9419 11.5451L33.9464 11.5471C36.5669 12.1846 37.6369 13.1741 37.6324 14.9609C37.6324 17.0785 36.0148 18.446 33.5119 18.446C31.741 18.446 30.1011 17.818 28.7678 16.6276C28.7113 16.577 28.7053 16.4907 28.7544 16.4311L29.933 15.0294C29.9568 15.0011 29.991 14.9832 30.0297 14.9802C30.0671 14.9781 30.1038 14.9903 30.1324 15.0145C31.2782 16.0055 32.3035 16.4297 33.5595 16.4297C34.6904 16.4297 35.3928 15.9401 35.3928 15.1529C35.3928 14.4427 35.0446 14.0454 32.9866 13.5712C30.5669 12.9865 29.1666 12.2291 29.1666 10.0899C29.1666 8.09513 30.7901 6.70093 33.113 6.70093C34.6934 6.70093 36.0446 7.16924 37.2455 8.13248C37.3036 8.17929 37.3153 8.2632 37.2723 8.32415L36.2217 9.8051C36.1997 9.83633 36.1657 9.85711 36.1279 9.86254C36.0907 9.86849 36.052 9.85942 36.0223 9.83665C35.0133 9.08456 34.052 8.71924 33.0818 8.71924C32.0803 8.71924 31.4077 9.20034 31.4077 9.91522ZM43.2961 9.42311C42.2113 9.42311 41.3214 9.85049 40.5863 10.7262V9.74052C40.5866 9.66291 40.524 9.59971 40.4464 9.5993H38.5193C38.4419 9.5993 38.3794 9.66269 38.3794 9.74052V20.693C38.3794 20.7704 38.4419 20.8344 38.5193 20.8344H40.4464C40.5238 20.8344 40.5863 20.7704 40.5863 20.693V17.2362C41.3214 18.0591 42.2113 18.4624 43.2961 18.4624C45.3125 18.4624 47.3541 16.9103 47.3541 13.9432C47.3571 10.9755 45.3154 9.42296 43.2976 9.42296L43.2961 9.42311ZM42.8497 16.5085C44.183 16.5085 45.113 15.4535 45.113 13.9432V13.943C45.113 12.4564 44.1607 11.3779 42.8497 11.378C41.5327 11.378 40.5386 12.4804 40.5386 13.9432C40.5386 15.4058 41.5327 16.5085 42.8497 16.5085ZM52.5848 9.42311C49.988 9.42311 47.9538 11.4225 47.9538 13.9755C47.9538 16.5011 49.9747 18.4788 52.5535 18.4788C55.1592 18.4788 57.1994 16.4862 57.1994 13.9432C57.1994 11.4088 55.1726 9.4234 52.5848 9.4234V9.42311ZM50.1622 13.9425C50.1622 15.4133 51.2038 16.5234 52.5848 16.5234C53.9791 16.5234 54.991 15.452 54.991 13.9747C54.991 12.5024 53.9434 11.3927 52.5535 11.3927C51.1681 11.3927 50.1622 12.4649 50.1622 13.9425ZM62.744 9.5993H60.6235V7.43174C60.6236 7.39448 60.609 7.35869 60.5827 7.33223C60.5565 7.30577 60.5208 7.29082 60.4836 7.29066H58.5565C58.4791 7.29066 58.4151 7.35406 58.4151 7.43174V9.5993H57.4895C57.4122 9.5993 57.3497 9.66269 57.3497 9.74052V11.3963C57.3497 11.474 57.4122 11.5375 57.4895 11.5375H58.4151V15.8225C58.4151 17.5532 59.2767 18.4311 60.9776 18.4311C61.6681 18.4311 62.241 18.2883 62.7812 17.9817C62.8258 17.9579 62.8526 17.9103 62.8526 17.8597V16.2823C62.8526 16.2347 62.8273 16.1886 62.7857 16.1633C62.7444 16.1369 62.6922 16.1346 62.6488 16.1573C62.2782 16.3433 61.9196 16.4297 61.5178 16.4297C60.9002 16.4297 60.6235 16.1484 60.6235 15.5204V11.5383H62.744C62.8214 11.5383 62.8839 11.4749 62.8839 11.3971V9.74141C62.8851 9.70407 62.8711 9.66785 62.8449 9.64117C62.8188 9.61449 62.7828 9.59968 62.7455 9.60019L62.744 9.5993ZM70.1309 9.34156V9.60778V9.60822H73.4226C73.4808 9.60841 73.5329 9.64452 73.5535 9.699L75.8035 15.571L77.8586 9.70287C77.8779 9.64647 77.9315 9.60822 77.9925 9.60822H79.9985C80.0445 9.60818 80.0875 9.6312 80.113 9.66953C80.14 9.70785 80.1456 9.75725 80.1279 9.80063L76.7857 18.4371C76.0937 20.2198 75.3065 20.8835 73.8839 20.8835C73.1235 20.8835 72.5089 20.7258 71.8273 20.3567C71.7619 20.321 71.7351 20.2422 71.7663 20.1737L72.4196 18.7407C72.4345 18.705 72.4657 18.6782 72.5029 18.6648C72.5401 18.654 72.58 18.6577 72.6145 18.6752C72.9791 18.8761 73.3377 18.9773 73.677 18.9773C74.0967 18.9773 74.4047 18.8389 74.7172 18.1454L71.9613 11.538H70.1622V18.1454C70.1622 18.2243 70.0997 18.2868 70.0208 18.2868H68.0952C68.0178 18.2868 67.9538 18.2243 67.9538 18.1454V11.5375H67.0282C66.9508 11.5375 66.8869 11.474 66.8869 11.3963V9.73203C66.8869 9.65436 66.9508 9.59096 67.0282 9.59096H67.9538V9.18322C67.9538 7.28843 68.8958 6.28635 70.6741 6.28635C71.4062 6.28635 71.8943 6.40287 72.2752 6.51641C72.335 6.53416 72.3757 6.58938 72.375 6.65168V8.27519C72.3753 8.32053 72.3537 8.36324 72.3169 8.38977C72.2812 8.41641 72.2351 8.4234 72.1904 8.40941C71.8288 8.28888 71.5059 8.20912 71.1041 8.20912C70.4315 8.20912 70.1309 8.55837 70.1309 9.34156ZM65.8482 9.5993H63.9211C63.8437 9.5993 63.7797 9.66269 63.7797 9.74052V18.1454C63.7797 18.2243 63.8437 18.2868 63.9211 18.2868H65.8482C65.9255 18.2868 65.9895 18.2243 65.9895 18.1454V9.74111C65.9896 9.70361 65.9747 9.66762 65.9482 9.64111C65.9217 9.61461 65.8857 9.59977 65.8482 9.59989V9.5993ZM63.5133 7.15316C63.5133 6.38992 64.1324 5.77206 64.8958 5.77206C65.6577 5.77206 66.2767 6.39007 66.2767 7.15316C66.2767 7.91685 65.6592 8.53546 64.8958 8.53546C64.1324 8.53546 63.5133 7.91685 63.5133 7.15316ZM81.7738 12.3018C81.0119 12.3018 80.4181 11.6895 80.4181 10.9459C80.4181 10.2023 81.0193 9.58293 81.7812 9.58293C82.5431 9.58293 83.1369 10.1951 83.1369 10.9381C83.1369 11.6817 82.5357 12.3018 81.7738 12.3018ZM80.561 10.9459C80.561 10.2698 81.0863 9.71775 81.7812 9.71775C82.4717 9.71775 82.994 10.2624 82.994 10.9381C82.994 11.6146 82.4687 12.1663 81.7738 12.1663C81.0833 12.1663 80.561 11.6216 80.561 10.9459ZM82.0818 11.0776L82.4657 11.6145H82.1413L81.7961 11.1219H81.5V11.6145H81.2291V10.1913H81.863C82.1949 10.1913 82.4122 10.3605 82.4122 10.6453C82.4136 10.8786 82.2782 11.0212 82.0833 11.0776H82.0818ZM81.4999 10.4355H81.8526C82.0282 10.4355 82.1339 10.5139 82.1339 10.6603C82.1339 10.7994 82.0282 10.8856 81.8526 10.8856H81.4999V10.4355Z" fill="#353D52"/>
</svg>
