<?xml version="1.0" standalone="no"?>
<!DOCTYPE svg PUBLIC "-//W3C//DTD SVG 20010904//EN"
 "http://www.w3.org/TR/2001/REC-SVG-20010904/DTD/svg10.dtd">
<svg version="1.0" xmlns="http://www.w3.org/2000/svg"
 width="98.000000pt" height="98.000000pt" viewBox="0 0 98.000000 98.000000"
 preserveAspectRatio="xMidYMid meet">
<metadata>
Created by potrace 1.14, written by Peter Selinger 2001-2017
</metadata>
<g transform="translate(0.000000,98.000000) scale(0.100000,-0.100000)"
fill="#000000" stroke="none">
<path d="M877 814 c-1 -2 -20 -5 -42 -8 -77 -10 -107 -15 -125 -21 -10 -3 -27
-8 -38 -10 -122 -23 -254 -111 -298 -198 -24 -47 -25 -47 -52 -33 -15 7 -45
17 -67 21 -22 4 -56 14 -75 22 -19 9 -38 16 -41 15 -4 -1 -17 10 -29 23 -45
48 -49 38 -54 -125 -6 -184 70 -311 188 -316 39 -1 96 25 96 45 0 4 -17 16
-37 25 -76 34 -143 118 -157 196 l-7 35 22 -40 c37 -68 79 -115 133 -145 57
-33 82 -37 111 -16 11 7 24 14 30 14 5 1 15 27 22 58 16 70 53 148 91 190 33
37 113 99 156 121 26 13 23 7 -22 -37 -59 -59 -122 -133 -122 -144 0 -5 -9
-20 -19 -35 -10 -14 -25 -61 -32 -103 -15 -93 -6 -122 47 -144 82 -34 161 -10
233 72 55 62 71 122 75 276 4 129 21 194 63 240 9 10 14 19 12 19 -8 3 -60 5
-62 3z"/>
</g>
</svg>
