<?xml version="1.0" standalone="no"?>
<!DOCTYPE svg PUBLIC "-//W3C//DTD SVG 20010904//EN"
 "http://www.w3.org/TR/2001/REC-SVG-20010904/DTD/svg10.dtd">
<svg version="1.0" xmlns="http://www.w3.org/2000/svg"
 width="208.000000pt" height="208.000000pt" viewBox="0 0 208.000000 208.000000"
 preserveAspectRatio="xMidYMid meet">
<metadata>
Created by potrace 1.14, written by Peter Selinger 2001-2017
</metadata>
<g transform="translate(0.000000,208.000000) scale(0.100000,-0.100000)"
fill="#000000" stroke="none">
<path d="M1748 1695 c-399 -57 -640 -145 -823 -299 -33 -28 -70 -62 -82 -76
-29 -31 -89 -136 -104 -181 -16 -45 -14 -44 -46 -22 -38 26 -70 38 -193 68
-191 47 -254 78 -339 167 -28 29 -51 48 -51 42 0 -5 -7 -84 -16 -175 -34 -355
19 -600 160 -740 21 -20 70 -54 111 -74 70 -36 78 -37 147 -33 40 3 87 12 103
20 34 18 85 63 85 75 0 4 -42 28 -92 53 -171 83 -274 211 -348 432 -30 92 -26
128 6 55 24 -53 143 -232 181 -272 92 -97 234 -175 315 -175 39 0 54 6 82 31
29 25 39 28 55 20 25 -14 26 -12 41 74 57 331 225 546 574 734 32 17 61 29 64
26 3 -3 3 -6 1 -8 -90 -62 -208 -176 -316 -306 -142 -170 -237 -436 -209 -585
18 -93 136 -161 281 -161 73 0 87 4 159 40 139 69 243 191 299 352 29 85 30
97 38 323 4 129 12 260 17 291 15 82 62 195 110 267 l43 62 -48 -1 c-26 -1
-119 -11 -205 -24z"/>
</g>
</svg>
